<svg xmlns="http://www.w3.org/2000/svg" xmlns:xlink="http://www.w3.org/1999/xlink" preserveAspectRatio="xMidYMid" version="1.1" viewBox="0.0 -1.2 255.6 290.1" zoomAndPan="magnify" style="fill: rgb(0, 0, 0);" original_string_length="1966">
 <g>
  <path d="m255.57 84.72c0-4.83-1.04-9.098-3.13-12.761-2.05-3.602-5.12-6.621-9.24-9.008-34.03-19.619-68.08-39.178-102.1-58.817-9.17-5.294-18.06-5.101-27.16 0.269-13.54 7.987-81.35 46.834-101.56 58.537-8.316 4.817-12.365 12.189-12.367 21.771-0.013 39.459 0 78.909-0.013 118.37 0.002 4.72 0.991 8.9 2.988 12.51 2.053 3.71 5.169 6.82 9.386 9.26 20.206 11.7 88.016 50.54 101.56 58.53 9.11 5.38 18 5.57 27.17 0.27 34.02-19.64 68.08-39.2 102.11-58.81 4.22-2.44 7.33-5.55 9.39-9.26 1.99-3.6 2.98-7.79 2.98-12.52 0 0 0-78.88-0.01-118.34" style="fill: rgb(255, 203, 141);"/>
  <path d="m128.18 143.51l-125.19 72.08c2.051 3.71 5.167 6.82 9.384 9.26 20.206 11.7 88.016 50.54 101.56 58.53 9.11 5.38 18 5.57 27.17 0.27 34.02-19.64 68.08-39.2 102.11-58.81 4.22-2.44 7.33-5.55 9.39-9.26l-124.42-72.07" style="fill: rgb(189, 109, 76);"/>
  <path d="m91.101 164.86c7.285 12.72 20.979 21.3 36.689 21.3 15.81 0 29.58-8.69 36.83-21.54l-36.44-21.11-37.079 21.35" style="fill: rgb(189, 109, 76);"/>
  <path d="m255.57 84.72c0-4.83-1.04-9.098-3.13-12.761l-124.26 71.551 124.42 72.07c1.99-3.6 2.98-7.79 2.98-12.52 0 0 0-78.88-0.01-118.34" style="fill: rgb(247, 153, 85);"/>
  <path d="m248.73 148.66h-9.72v9.72h-9.73v-9.72h-9.72v-9.72h9.72v-9.72h9.73v9.72h9.72v9.72" style="fill: rgb(255, 255, 255);"/>
  <path d="m213.25 148.66h-9.72v9.72h-9.72v-9.72h-9.72v-9.72h9.72v-9.72h9.72v9.72h9.72v9.72" style="fill: rgb(255, 255, 255);"/>
  <path d="m164.62 164.62c-7.25 12.85-21.02 21.54-36.83 21.54-15.71 0-29.404-8.58-36.689-21.3-3.539-6.18-5.574-13.33-5.574-20.97 0-23.34 18.923-42.26 42.263-42.26 15.61 0 29.23 8.47 36.55 21.06l36.94-21.27c-14.68-25.349-42.09-42.401-73.49-42.401-46.875 0-84.874 38-84.874 84.871 0 15.38 4.091 29.8 11.241 42.24 14.646 25.48 42.137 42.64 73.633 42.64 31.56 0 59.09-17.23 73.71-42.78l-36.88-21.37" style="fill: rgb(255, 255, 255);"/>
 </g>
</svg>